<?xml version="1.0" encoding="UTF-8" standalone="no"?>
<!DOCTYPE svg PUBLIC "-//W3C//DTD SVG 1.1//EN" "http://www.w3.org/Graphics/SVG/1.1/DTD/svg11.dtd">
<svg width="600" height="660" version="1.1" xmlns="http://www.w3.org/2000/svg">

 <path fill="#000000"
       d="M 299.99999,658.50028 C 299.99999,658.50028 1.5,546.17992 1.5,260.72828 C 1.5,-24.723336 1.5,2.1764957 1.5,2.1764957 L 598.49999,2.1764957 L 598.49999,260.72828 C 598.49999,546.17992 299.99999,658.50028 299.99999,658.50028 z"
       
       id="path1411"/>  <path fill="#ffffff" d="m68,367.28571l225.64285,-91.92856l-91.92857,225.64282l100.28572,-66.85715l100.28571,66.85715l-91.92856,-225.64282l225.64285,91.92856l-66.85718,-100.28571l66.85718,-100.28574l-225.64285,91.92859l91.92856,-225.64285l-100.28571,66.85714l-100.28572,-66.85714l91.92857,225.64285l-225.64285,-91.92859l66.85715,100.28574l-66.85715,100.28571z" id="svg_1"/>
</svg>